<svg id="圖層_1" data-name="圖層 1" xmlns="http://www.w3.org/2000/svg" xmlns:xlink="http://www.w3.org/1999/xlink" viewBox="0 0 296.44 94.31"><defs><style>.cls-1{fill:none;}.cls-2{clip-path:url(#clip-path);}.cls-3{fill:#231815;}</style><clipPath id="clip-path" transform="translate(-0.78 -87.27)"><rect class="cls-1" x="0.78" y="87.27" width="296.44" height="94.31"/></clipPath></defs><title>logo_echo</title><g class="cls-2"><path class="cls-3" d="M40.85,149.6c.22.11,9.25-6.61,13.44-11.07,4.72-5,8.79-10.17,4.44-13.8-3.42-2.85-7.86,1.08-10.55,4.84-3.37,4.72-5.06,10.16-6.5,15.8-.35,1.39-.56,2.82-.83,4.23m242.05-4.48a12.75,12.75,0,0,0-4.08-9.46c-6.26-5.4-14.42-1.55-19.7,3-4.64,4-8.7,10-9.93,16-.6,3-.55,8.72,2,10.49,10.42,7.16,29-5.12,31-16a20.42,20.42,0,0,0,.66-4M152.6,148.2c-.43.5-.87,1-1.29,1.51a89.21,89.21,0,0,1-26.84,23A37.93,37.93,0,0,1,102.79,177c-8.7-.73-14.66-7.28-15.12-16.23,0-.74-.12-1.48-.2-2.52-2.73,2.2-5.12,4.23-7.62,6.11-7,5.28-14.48,9.71-23.22,11.39-7,1.35-13.8.59-19.59-4.05A50.47,50.47,0,0,1,32,166.25c-1,.61-2.24,1.33-3.43,2.06-6,3.67-12,7.36-18,11-1,.63-2.14,1.17-3.24,1.7-2.28,1.08-5.22.59-6.16-1.7A6.29,6.29,0,0,1,1.64,174a25.52,25.52,0,0,1,7.07-6.14c6-3.45,12.29-6.5,18.51-9.62,1.82-.92,2.68-1.84,2.66-4.21A45.34,45.34,0,0,1,42,122.28c3.88-4.27,8.6-7.22,14.63-7.24,7.82,0,13,7.57,12.43,14.68-1.08,12.44-14.4,21.37-23.73,27.8a2,2,0,0,0-.63,3c7.53,14.25,34.37-6.82,41.27-12.65,9.55-8.08,16.88-22.8,29.68-26.11,5.17-1.34,9.87-.43,13.62,3.64,3.23,3.51,1.86,11.83-3.94,11.64-3.09-.1-3.2-2.91-5.28-4.36-6.53-4.55-16,15.68-17.05,19.37-1.77,6-1.06,14.8,7.63,13.58a35.26,35.26,0,0,0,15-5.71,102.24,102.24,0,0,0,27.6-27.29,10.38,10.38,0,0,0,1.63-4.77c.73-9.38,1.11-18.79,2-28.15.27-2.93,1.82-11.61,7.55-12.34,3.9-.5,7.29,1.22,7.3,5.28a65.91,65.91,0,0,1-1,8.22q-2.66,20.81-5.32,41.59c-.35,2.69-.77,5.36-1.15,8a2.32,2.32,0,0,0,.3,1.62c.39-.51.81-1,1.18-1.55,5.27-7.79,10.41-15.7,17.71-21.84,3.92-3.31,8.09-6.19,13.26-7.23a7.49,7.49,0,0,1,8.9,5.24c1.14,4.49,1.9,9.07,2.76,13.62.47,2.47.83,5,1.2,7.44.78,5.23,4.68,8,9.42,6,8.82-3.63,16.73-8.24,23.53-14.94,6.22-6.14,10.12-11.05,18.92-15.1,16.08-7.4,36.36,3.55,35.82,22.12a24.46,24.46,0,0,1-6.5,15.79c-8,8.95-17.74,15.45-29.73,17.56-12.89,2.27-27.53-5.67-26.13-20.12.05-.44.12-.88.15-1.33,0-.1-.13-.2-.34-.52-.5.34-1,.69-1.5,1-10,6.75-30.79,13.57-34.8-3.51-1.24-5.26-2-10.62-3-15.93-.06-.32-.08-.64-.15-.95-.71-3-1.55-3.32-3.83-1.3C179.55,147.05,172,159.84,163.71,173a12.33,12.33,0,0,1-3.12,3.32,5.47,5.47,0,0,1-6.83.16c-2.29-1.59-3.58-3.65-3.21-6.55q1.27-10.17,2.51-20.33a8.36,8.36,0,0,0,0-1.12l-.47-.26" transform="translate(-0.78 -87.27)"/></g></svg>